# xmcd
#
# Track frame offsets: 
#        150
#        11469
#        27704
#        36574
#        47532
#        58389
#        69264
#        105747
#        117663
#        128715
#        141632
#        151705
#        164890
#
# Disc length: 2343 seconds
#
# Revision: 5
# Processed by: cddbd v1.5.2PL0 Copyright (c) Steve Scherf et al.
# Submitted via: ExactAudioCopyFreeDBPlugin 1.0
#
DISCID=c309250d
DTITLE=Elvis Presley - Christmas Duets
DYEAR=2008
DGENRE=Christmas
TTITLE0=Elvis Presley (With Martina McBride) - Blue Christmas
TTITLE1=Elvis Presley (With Carrie Underwood) - I'll be Home For Chris
TTITLE1=tmas
TTITLE2=Elvis Presley (With LeAnn Rimes) - Here Comes Santa Claus (Rig
TTITLE2=ht Down Santa Claus Lane)
TTITLE3=Elvis Presley (With Wynonna Judd) - Santa Claus Is Back In Tow
TTITLE3=n
TTITLE4=Elvis Presley (With Sara Evans) - Silent Night
TTITLE5=Elvis Presley (With Amy Grant) - White Christmas
TTITLE6=Elvis Presley (With Gretchen Wilson) - Merry Christmas Baby
TTITLE7=Elvis Presley (With Karen Fairchild and Kimberly Schlapman Of Li
TTITLE7=ttle Big Town) - O Little Town Of Bethlehem
TTITLE8=Elvis Presley (With Anne Murray) - Silver Bells
TTITLE9=Elvis Presley (With Olivia Newton-John) - O Come, All Ye Faith
TTITLE9=ful
TTITLE10=The First Noel (2008 Remix)
TTITLE11=If I Get Home On Christmas Day (2008 Remix)
TTITLE12=Winter Wonderland (2008 Remix)
EXTD=
EXTT0=
EXTT1=
EXTT2=
EXTT3=
EXTT4=
EXTT5=
EXTT6=
EXTT7=
EXTT8=
EXTT9=
EXTT10=
EXTT11=
EXTT12=
PLAYORDER=
